<?xml version="1.0" encoding="utf-8"?><svg class="qh__icon__svg qh__icon__box-ballot" xmlns="http://www.w3.org/2000/svg" viewBox="0 0 44 44">
	<g transform="translate(10.75 10) scale(0.375)">
		<path class="qh__icon__path qh__icon__box-ballot__path" d="M18.8672 19.4531L28.4766 29.0625C29.2969 29.8828 30.4688 29.8828 31.1719 29.0625L43.0078 17.2266C43.8281 16.5234 43.8281 15.3516 43.0078 14.5312L33.3984 4.92188C32.6953 4.10156 31.4062 4.10156 30.7031 4.92188L18.8672 16.7578C18.0469 17.4609 18.0469 18.75 18.8672 19.4531ZM16.1719 22.0312C13.9453 19.9219 13.9453 16.2891 16.1719 14.1797L28.125 2.22656C30.2344 0 33.8672 0 35.9766 2.22656L45.7031 11.9531C47.9297 14.0625 47.9297 17.6953 45.7031 19.8047L35.5078 30.1172H46.875C47.9297 30.1172 48.75 30.9375 48.75 31.9922C48.75 33.0469 47.9297 33.8672 46.875 33.8672H13.125C12.0703 33.8672 11.25 33.0469 11.25 31.9922C11.25 30.9375 12.0703 30.1172 13.125 30.1172H24.2578L16.1719 22.0312ZM50.7422 22.6172C51.6797 21.4453 52.2656 20.1562 52.6172 18.8672C56.7188 18.9844 60 22.2656 60 26.3672V56.3672C60 60.4688 56.6016 63.8672 52.5 63.8672H7.5C3.39844 63.8672 0 60.4688 0 56.3672V26.3672C0 22.2656 3.39844 18.8672 7.5 18.8672H8.90625C8.90625 20.1562 9.25781 21.4453 9.84375 22.6172H7.5C5.39062 22.6172 3.75 24.2578 3.75 26.3672V41.3672H56.25V26.3672C56.25 24.2578 54.6094 22.6172 52.5 22.6172H50.7422ZM56.25 45.1172H3.75V56.3672C3.75 58.4766 5.39062 60.1172 7.5 60.1172H52.5C54.6094 60.1172 56.25 58.4766 56.25 56.3672V45.1172Z"/>
	</g>
</svg>
