<?xml version="1.0" encoding="utf-8"?><svg class="qh__icon__svg qh__icon__building-user" xmlns="http://www.w3.org/2000/svg" viewBox="0 0 44 44">
	<g transform="translate(10 10.533) scale(0.5333)">
		<path class="qh__icon__path qh__icon__building-user__path" d="M27.5 2.5H2.5V37.5H10V27.5H20V38.8281L19.5312 40H0V0H30V14.4531C29.0625 14.8438 28.2812 15.3125 27.5 15.9375V2.5ZM17.5 37.5V30H12.5V37.5H17.5ZM21.25 8.75V12.5H17.5V8.75H21.25ZM17.5 17.5H21.25V21.25H17.5V17.5ZM12.5 8.75V12.5H8.75V8.75H12.5ZM8.75 17.5H12.5V21.25H8.75V17.5ZM27.5 23.75C27.5 20.3125 30.3125 17.5 33.75 17.5C37.1875 17.5 40 20.3125 40 23.75C40 27.1875 37.1875 30 33.75 30C30.3125 30 27.5 27.1875 27.5 23.75ZM25.2344 42.5H22.5C22.7344 41.9531 24.2969 38.3594 26.25 33.9844L26.875 32.5H40.625C40.7031 32.7344 41.7969 35.2344 43.9062 40C44.375 41.0938 44.7656 41.9531 45 42.5H42.2656L38.9844 35H28.5156L25.2344 42.5ZM37.5 23.75C37.5 21.6406 35.8594 20 33.75 20C31.6406 20 30 21.6406 30 23.75C30 25.8594 31.6406 27.5 33.75 27.5C35.8594 27.5 37.5 25.8594 37.5 23.75Z"/>
	</g>
</svg>
