<?xml version="1.0" encoding="utf-8"?><svg class="qh__icon__svg qh__icon__city" xmlns="http://www.w3.org/2000/svg" viewBox="0 0 44 44">
	<g transform="translate(10 11.565) scale(1.0435)">
		<path class="qh__icon__path qh__icon__city__path" d="M8.125 0H18.125V7.5H22.5V20H0V3.75H1.875V0H3.75V3.75H5V0H6.875V3.75H8.125V0ZM6.875 5.625H1.875V18.125H8.125V5.625H6.875ZM20.625 18.125V9.375H16.25V1.875H10V18.125H20.625ZM11.875 3.75H14.375V6.25H11.875V3.75ZM18.75 11.25V13.75H16.25V11.25H18.75ZM11.875 7.5H14.375V10H11.875V7.5ZM6.25 10H3.75V7.5H6.25V10ZM11.875 11.25H14.375V13.75H11.875V11.25ZM6.25 13.75H3.75V11.25H6.25V13.75Z"/>
	</g>
</svg>
