<?xml version="1.0" encoding="utf-8"?><svg class="qh__icon__svg qh__icon__handshake" xmlns="http://www.w3.org/2000/svg" viewBox="0 0 44 44">
	<g transform="translate(10 12.647) scale(0.3529)">
		<path class="qh__icon__path qh__icon__handshake__path" d="M65.9766 3.63281H66.0938L55.7812 11.1328C55.0781 11.6016 54.2578 11.6016 53.5547 11.1328L50.7422 9.25781C49.2188 8.32031 47.4609 7.73438 45.5859 7.73438H34.8047L19.8047 22.7344L19.9219 22.8516C23.5547 26.4844 29.4141 26.4844 33.1641 22.8516L38.3203 17.6953C39.0234 16.9922 40.1953 16.9922 40.8984 17.6953L54.375 31.0547C55.8984 32.5781 56.7188 34.4531 57.0703 36.4453L64.5703 28.9453C65.2734 28.125 66.4453 28.125 67.1484 28.9453C67.9688 29.6484 67.9688 30.8203 67.1484 31.5234L54.9609 43.7109C54.9609 43.8281 54.8438 43.8281 54.8438 43.9453C54.7266 44.0625 54.4922 44.1797 54.375 44.4141L50.9766 47.8125C47.8125 50.9766 43.4766 52.7344 39.0234 52.7344H28.9453C24.4922 52.7344 20.1562 50.9766 16.9922 47.8125L0.820312 31.5234C0 30.8203 0 29.6484 0.820312 28.9453C1.52344 28.2422 2.69531 28.2422 3.39844 28.9453L19.6875 45.1172C22.1484 47.5781 25.4297 48.9844 28.9453 48.9844H32.2266L29.8828 46.5234C29.0625 45.8203 29.0625 44.6484 29.8828 43.9453C30.5859 43.2422 31.7578 43.2422 32.4609 43.9453L37.6172 48.9844H39.0234C41.8359 48.9844 44.4141 48.1641 46.6406 46.5234L43.0078 42.7734C42.3047 42.0703 42.3047 40.8984 43.0078 40.1953C43.7109 39.4922 44.8828 39.4922 45.5859 40.1953L49.4531 43.9453L51.6797 41.7188C53.9062 39.4922 53.9062 35.9766 51.6797 33.75L39.6094 21.6797L35.7422 25.5469C30.7031 30.5859 22.3828 30.5859 17.2266 25.5469L17.1094 25.4297C15.7031 23.9062 15.7031 21.5625 17.1094 20.0391L29.4141 7.73438H21.7969C19.3359 7.73438 16.875 8.67188 15.1172 10.4297L14.6484 10.8984C14.0625 11.6016 13.0078 11.7188 12.3047 11.1328L1.99219 3.63281C1.05469 3.04688 0.9375 1.875 1.52344 1.05469C2.10938 0.234375 3.28125 0 4.10156 0.585938L13.2422 7.14844C15.5859 5.15625 18.6328 3.98438 21.7969 3.98438H45.5859C48.1641 3.98438 50.7422 4.80469 52.8516 6.21094L54.6094 7.26562L63.8672 0.585938C64.6875 0 65.8594 0.117188 66.4453 1.05469C67.0312 1.875 66.9141 3.04688 65.9766 3.63281Z"/>
	</g>
</svg>
