<?xml version="1.0" encoding="utf-8"?><svg class="qh__icon__svg qh__icon__house-chimney" xmlns="http://www.w3.org/2000/svg" viewBox="0 0 44 44">
	<g transform="translate(10 10) scale(1.1429)">
		<path class="qh__icon__path qh__icon__house-chimney__path" d="M10.9766 0.546875L16.6016 5.58594V2.8125H18.4766V7.26562C19.6875 8.32031 20.4297 9.02344 20.7422 9.29688L19.4922 10.7031C18.9844 10.2344 18.6328 9.92188 18.4766 9.80469V20.3125H2.22656V9.80469C2.10938 9.92188 1.75781 10.2344 1.25 10.7031L0 9.29688L0.664062 8.67188L9.72656 0.546875L10.3516 0L10.9766 0.546875ZM16.6016 8.125L10.3516 2.5L4.10156 8.125V18.4375H6.60156V11.5625H14.1016V18.4375H16.6016V8.125ZM8.47656 18.4375H12.2266V13.4375H8.47656V18.4375Z"/>
	</g>
</svg>
