<?xml version="1.0" encoding="utf-8"?><svg class="qh__icon__svg qh__icon__sparkles" xmlns="http://www.w3.org/2000/svg" viewBox="0 0 44 44">
	<g transform="translate(10 10.667) scale(0.6667)">
		<path class="qh__icon__path qh__icon__sparkles__path" d="M32 0V4H36V6H32V10H30V6H26V4H30V0H32ZM17 21C14.75 26.0625 13.4375 29.0625 13 30C12.5625 29.0625 11.25 26.0625 9 21C3.9375 18.75 0.9375 17.4375 0 17C0.9375 16.5625 3.9375 15.25 9 13C11.25 7.9375 12.5625 4.9375 13 4C13.4375 4.9375 14.75 7.9375 17 13C22.0625 15.25 25.0625 16.5625 26 17C25.0625 17.4375 22.0625 18.75 17 21ZM13 25.0625L15.1875 20.1875L15.5 19.5L16.1875 19.1875L21.0625 17L16.1875 14.8125L15.5 14.5L15.1875 13.8125L13 8.9375L10.8125 13.8125L10.5 14.5L9.8125 14.8125L4.9375 17L9.8125 19.1875L10.5 19.5L10.8125 20.1875L13 25.0625ZM30 25V28H34V30H30V34H28V30H24V28H28V24H30V25Z"/>
	</g>
</svg>
