<?xml version="1.0" encoding="utf-8"?><svg class="qh__icon__svg qh__icon__users-line" xmlns="http://www.w3.org/2000/svg" viewBox="0 0 44 44">
	<g transform="translate(10 13) scale(0.3529)">
		<path class="qh__icon__path qh__icon__users-line__path" d="M39.375 9.375C39.375 6.21094 36.9141 3.75 33.75 3.75C30.5859 3.75 28.125 6.21094 28.125 9.375C28.125 12.5391 30.5859 15 33.75 15C36.9141 15 39.375 12.5391 39.375 9.375ZM24.375 9.375C24.375 4.21875 28.5938 0 33.75 0C38.9062 0 43.125 4.21875 43.125 9.375C43.125 14.5312 38.9062 18.75 33.75 18.75C28.5938 18.75 24.375 14.5312 24.375 9.375ZM17.8125 16.875C18.75 16.875 19.5703 16.6406 20.3906 16.1719C20.9766 17.2266 21.6797 18.2812 22.5 19.2188C21.0938 20.1562 19.5703 20.625 17.8125 20.625C13.125 20.625 9.375 16.875 9.375 12.1875C9.375 7.5 13.125 3.75 17.8125 3.75C18.5156 3.75 19.1016 3.86719 19.8047 3.98438C19.3359 5.15625 18.9844 6.32812 18.8672 7.61719C18.5156 7.5 18.1641 7.5 17.8125 7.5C15.2344 7.5 13.125 9.60938 13.125 12.1875C13.125 14.7656 15.2344 16.875 17.8125 16.875ZM49.6875 20.625C47.9297 20.625 46.4062 20.1562 45 19.2188C45.8203 18.2812 46.5234 17.2266 47.1094 16.1719C47.9297 16.6406 48.75 16.875 49.6875 16.875C52.2656 16.875 54.375 14.7656 54.375 12.1875C54.375 9.60938 52.2656 7.5 49.6875 7.5C49.3359 7.5 48.9844 7.5 48.6328 7.61719C48.5156 6.32812 48.1641 5.15625 47.6953 3.98438C48.3984 3.86719 48.9844 3.75 49.6875 3.75C54.375 3.75 58.125 7.5 58.125 12.1875C58.125 16.875 54.375 20.625 49.6875 20.625ZM5.625 36.5625C5.625 29.8828 11.1328 24.375 17.8125 24.375H18.1641C16.9922 25.6641 15.9375 27.0703 15.1172 28.5938C11.8359 29.6484 9.375 32.8125 9.375 36.5625V37.5C9.375 38.5547 8.55469 39.375 7.5 39.375C6.44531 39.375 5.625 38.5547 5.625 37.5V36.5625ZM52.3828 28.5938C51.5625 27.0703 50.5078 25.6641 49.3359 24.375H49.6875C56.4844 24.375 61.875 29.8828 61.875 36.5625V37.5C61.875 38.5547 61.0547 39.375 60 39.375C58.9453 39.375 58.125 38.5547 58.125 37.5V36.5625C58.125 32.8125 55.7812 29.6484 52.3828 28.5938ZM1.875 46.875H65.625C66.6797 46.875 67.5 47.6953 67.5 48.75C67.5 49.8047 66.6797 50.625 65.625 50.625H1.875C0.820312 50.625 0 49.8047 0 48.75C0 47.6953 0.820312 46.875 1.875 46.875ZM18.75 36.5625C18.75 29.8828 24.2578 24.375 30.9375 24.375H36.5625C43.2422 24.375 48.75 29.8828 48.75 36.5625V37.5C48.75 38.5547 47.9297 39.375 46.875 39.375C45.8203 39.375 45 38.5547 45 37.5V36.5625C45 31.875 41.25 28.125 36.5625 28.125H30.9375C26.25 28.125 22.5 31.875 22.5 36.5625V37.5C22.5 38.5547 21.6797 39.375 20.625 39.375C19.5703 39.375 18.75 38.5547 18.75 37.5V36.5625Z"/>
	</g>
</svg>
