<?xml version="1.0" encoding="utf-8"?><svg class="qh__icon__svg qh__icon__users" xmlns="http://www.w3.org/2000/svg" viewBox="0 0 44 44">
	<g transform="translate(10 13.2) scale(0.32)">
		<path class="qh__icon__path qh__icon__users__path" d="M46.875 13.125C46.875 7.96875 42.6562 3.75 37.5 3.75C32.3438 3.75 28.125 7.96875 28.125 13.125C28.125 18.2812 32.3438 22.5 37.5 22.5C42.6562 22.5 46.875 18.2812 46.875 13.125ZM24.375 13.125C24.375 5.85938 30.2344 0 37.5 0C44.7656 0 50.625 5.85938 50.625 13.125C50.625 20.3906 44.7656 26.25 37.5 26.25C30.2344 26.25 24.375 20.3906 24.375 13.125ZM52.9688 23.6719C54.0234 24.1406 55.0781 24.375 56.25 24.375C60.3516 24.375 63.75 20.9766 63.75 16.875C63.75 12.7734 60.3516 9.375 56.25 9.375C56.1328 9.375 56.0156 9.375 55.8984 9.375C55.6641 8.08594 55.1953 6.91406 54.7266 5.74219C55.1953 5.625 55.7812 5.625 56.25 5.625C62.4609 5.625 67.5 10.6641 67.5 16.875C67.5 23.0859 62.4609 28.125 56.25 28.125C54.1406 28.125 52.2656 27.5391 50.5078 26.6016C51.4453 25.6641 52.2656 24.7266 52.9688 23.6719ZM24.4922 26.6016C22.7344 27.5391 20.8594 28.125 18.75 28.125C12.5391 28.125 7.5 23.0859 7.5 16.875C7.5 10.6641 12.5391 5.625 18.75 5.625C19.2188 5.625 19.8047 5.625 20.2734 5.74219C19.8047 6.91406 19.3359 8.08594 19.1016 9.375C18.9844 9.375 18.8672 9.375 18.75 9.375C14.6484 9.375 11.25 12.7734 11.25 16.875C11.25 20.9766 14.6484 24.375 18.75 24.375C19.9219 24.375 20.9766 24.1406 21.9141 23.6719C22.6172 24.7266 23.5547 25.6641 24.375 26.6016H24.4922ZM50.625 31.875L58.8281 54.375H54.8438L48.0469 35.625H26.9531L20.1562 54.375H16.1719L24.375 31.875H50.625ZM17.6953 33.75L16.4062 37.5H10.0781L3.98438 54.375H0L7.5 33.75H17.6953ZM58.5938 37.5L57.3047 33.75H67.5L75 54.375H71.0156L64.9219 37.5H58.5938Z"/>
	</g>
</svg>
